# xmcd
#
# Track frame offsets: 
#        150
#        20828
#        40223
#        56053
#        73070
#        88423
#        102438
#        119866
#        134398
#        151254
#        172629
#        189088
#        207376
#        226969
#        239199
#        256996
#        273156
#
# Disc length: 3770 seconds
#
# Revision: 0
# Processed by: cddbd v1.4PL0 Copyright (c) Steve Scherf et al.
# Submitted via: ExactAudioCopy v0.90b4
#
DISCID=fa0eb811
DTITLE=Various Artist - Real Country
DYEAR=2001
DGENRE=Country
TTITLE0=Keith_Urban_-_But_for_the_Grace_Of_God
TTITLE1=Reba_McEntire_-_For_my_broken_Heart
TTITLE2=Toby_Keith_-_How_do_you_like_me_now
TTITLE3=John_Anderson_-_Nobody's_got_it_all
TTITLE4=Patty_Loveless_-_The_last_thing_on_my_mind
TTITLE5=Terry_Radigan_-_When_i_get_around_you
TTITLE6=John_Michael_Montgomery_-_The_little_girl
TTITLE7=Ricky_van_Shelton_-_Borrowed_Angel
TTITLE8=Venice_-_Landslide
TTITLE9=Rick_Trevino_-_Mi_son
TTITLE10=Venice_-The_road_to_where_you_are
TTITLE11=Ian_Tyson_-_Somewhere_over_the_rainbow
TTITLE12=Lee_R._Parnell_&_Bonnie_Bramlett_-_Breaking_down_slow
TTITLE13=David_Wilcox_-_On_your_way_back_down
TTITLE14=John_Jennings_-_I_belong_to_you
TTITLE15=The_Country_Gentleman_-_Bringing_Mary_Home
TTITLE16=Doc_Watson_&_Clarence_White_-_Footprints_in_the_Snow
EXTD=CD 2
EXTT0=
EXTT1=
EXTT2=
EXTT3=
EXTT4=
EXTT5=
EXTT6=
EXTT7=
EXTT8=
EXTT9=
EXTT10=
EXTT11=
EXTT12=
EXTT13=
EXTT14=
EXTT15=
EXTT16=
PLAYORDER=
